<?xml version="1.0" encoding="UTF-8"?>
<svg width="131px" height="106px" viewBox="0 0 131 106" version="1.1" xmlns="http://www.w3.org/2000/svg" xmlns:xlink="http://www.w3.org/1999/xlink">
    <!-- Generator: sketchtool 46.1 (44463) - http://www.bohemiancoding.com/sketch -->
    <title>F43C7F43-80A5-4DD5-91B7-C2E14FCA8EC6</title>
    <desc>Created with sketchtool.</desc>
    <defs></defs>
    <g id="Page-1" stroke="none" stroke-width="1" fill="none" fill-rule="evenodd">
        <g id="08-Dark-Orange---Green" transform="translate(-1323.000000, -225.000000)">
            <g id="bandwidth" transform="translate(1323.000000, 225.000000)">
                <g id="Group-12" transform="translate(50.000000, 18.000000)" fill="#00A375">
                    <path d="M13.645,63.2544 C7.845,63.2544 3.126,67.9734 3.126,73.7734 C3.126,79.5724 7.845,84.2914 13.645,84.2914 C19.445,84.2914 24.164,79.5724 24.164,73.7734 C24.164,67.9734 19.445,63.2544 13.645,63.2544 M13.645,87.2914 C6.191,87.2914 0.126,81.2274 0.126,73.7734 C0.126,66.3184 6.191,60.2544 13.645,60.2544 C21.099,60.2544 27.164,66.3184 27.164,73.7734 C27.164,81.2274 21.099,87.2914 13.645,87.2914" id="Fill-32"></path>
                    <path d="M75.748,3.1201 C75.391,3.1201 74.986,3.2491 74.572,3.6361 L24.543,54.2061 C24.133,54.5891 23.934,55.0541 23.938,55.5551 C23.943,56.0551 24.15,56.5151 24.523,56.8501 L29.34,61.1841 C29.711,61.5191 30.19,61.6741 30.689,61.6291 C31.188,61.5811 31.628,61.3341 31.93,60.9341 C31.942,60.9171 31.956,60.9001 31.97,60.8841 L77.225,5.9371 C78.111,4.7591 77.157,3.7951 76.956,3.6151 C76.83,3.5011 76.36,3.1201 75.748,3.1201 M30.523,64.6371 C29.352,64.6371 28.21,64.2031 27.333,63.4141 L22.516,59.0801 C21.526,58.1891 20.951,56.9141 20.938,55.5811 C20.927,54.2491 21.479,52.9631 22.454,52.0541 L72.482,1.4831 C74.406,-0.3119 77.054,-0.3349 78.963,1.3851 C80.874,3.1051 81.128,5.7411 79.581,7.7941 L34.304,62.7681 C33.502,63.8161 32.291,64.4891 30.977,64.6151 C30.826,64.6301 30.674,64.6371 30.523,64.6371" id="Fill-33"></path>
                </g>
                <g id="Group-11" fill="#E99D24">
                    <path d="M63.6455,53.4575 C54.7285,53.4575 46.0385,56.6015 39.1765,62.3115 C38.7685,62.6505 38.5305,63.1285 38.5065,63.6585 C38.4825,64.1855 38.6745,64.6805 39.0465,65.0535 L42.0975,68.1045 C42.7575,68.7645 43.8235,68.8345 44.5255,68.2635 C49.9125,63.8745 56.7025,61.4575 63.6455,61.4575 C64.2935,61.4575 64.9365,61.4795 65.5735,61.5225 C66.1035,61.5555 66.6135,61.3595 66.9875,60.9825 L70.8475,57.0905 C71.3485,56.5855 71.5155,55.8765 71.2945,55.1935 C71.1935,54.8795 70.8535,54.1315 69.8945,53.9725 C67.8375,53.6305 65.7345,53.4575 63.6455,53.4575 M43.4145,71.6605 C42.1705,71.6605 40.9275,71.1765 39.9765,70.2255 L36.9255,67.1745 C35.9635,66.2125 35.4475,64.8815 35.5095,63.5215 C35.5715,62.1595 36.2085,60.8775 37.2575,60.0045 C44.6575,53.8485 54.0295,50.4575 63.6455,50.4575 C65.8995,50.4575 68.1665,50.6445 70.3855,51.0135 C72.1525,51.3065 73.5945,52.5545 74.1495,54.2705 C74.7135,56.0165 74.2645,57.9055 72.9775,59.2035 L69.1175,63.0955 C68.1305,64.0895 66.7635,64.6085 65.3755,64.5155 C64.8035,64.4785 64.2275,64.4575 63.6455,64.4575 C57.3905,64.4575 51.2735,66.6355 46.4195,70.5895 C45.5405,71.3065 44.4775,71.6605 43.4145,71.6605" id="Fill-34"></path>
                    <path d="M63.6455,28.6059 C48.0495,28.6059 33.0625,34.3609 21.4455,44.8109 C21.0845,45.1349 20.8785,45.5839 20.8655,46.0739 C20.8525,46.5759 21.0405,47.0469 21.3945,47.4009 L24.5185,50.5249 C25.1865,51.1929 26.2745,51.2129 26.9975,50.5699 C37.1115,41.5649 50.1265,36.6059 63.6455,36.6059 C71.1295,36.6059 78.3985,38.0909 85.2505,41.0199 C85.8965,41.2939 86.6715,41.1339 87.1825,40.6199 L90.5095,37.2669 C90.9265,36.8459 91.1045,36.2699 90.9995,35.6869 C90.8935,35.0989 90.5205,34.6179 89.9775,34.3669 C81.6815,30.5439 72.8225,28.6059 63.6455,28.6059 M25.7715,54.0389 C24.5445,54.0389 23.3235,53.5719 22.3975,52.6469 L19.2735,49.5229 C18.3445,48.5939 17.8325,47.3079 17.8675,45.9949 C17.9015,44.6729 18.4605,43.4599 19.4395,42.5799 C31.6075,31.6339 47.3075,25.6059 63.6455,25.6059 C73.2585,25.6059 82.5405,27.6369 91.2325,31.6429 C92.6565,32.2979 93.6725,33.6099 93.9515,35.1519 C94.2295,36.6899 93.7395,38.2699 92.6395,39.3789 L89.3125,42.7319 C87.9215,44.1349 85.8655,44.5449 84.0715,43.7779 C77.5945,41.0099 70.7225,39.6059 63.6455,39.6059 C50.8625,39.6059 38.5565,44.2959 28.9925,52.8109 C28.0715,53.6309 26.9185,54.0389 25.7715,54.0389" id="Fill-35"></path>
                    <path d="M63.6455,3.7095 C41.4415,3.7095 20.2185,12.0325 3.8865,27.1445 C3.5105,27.4925 3.2975,27.9675 3.2875,28.4805 C3.2775,28.9955 3.4725,29.4785 3.8345,29.8415 L6.8535,32.8605 C7.5605,33.5665 8.6915,33.5875 9.4305,32.9075 C24.2615,19.2375 43.5155,11.7095 63.6455,11.7095 C77.6005,11.7095 91.3575,15.3805 103.4315,22.3255 C104.1415,22.7335 105.0535,22.6015 105.6465,22.0035 L108.7515,18.8725 C109.1625,18.4585 109.3545,17.8885 109.2805,17.3085 C109.2085,16.7395 108.8865,16.2475 108.3975,15.9585 C94.8775,7.9445 79.4025,3.7095 63.6455,3.7095 M8.1645,36.4075 C6.9205,36.4075 5.6805,35.9305 4.7325,34.9815 L1.7135,31.9625 C0.7685,31.0175 0.2625,29.7605 0.2885,28.4225 C0.3135,27.0855 0.8685,25.8495 1.8495,24.9425 C18.7365,9.3155 40.6835,0.7095 63.6455,0.7095 C79.9405,0.7095 95.9445,5.0895 109.9275,13.3765 C111.2165,14.1405 112.0655,15.4345 112.2565,16.9265 C112.4495,18.4305 111.9485,19.9095 110.8815,20.9845 L107.7765,24.1155 C106.2265,25.6785 103.8245,26.0115 101.9355,24.9255 C90.3165,18.2425 77.0765,14.7095 63.6455,14.7095 C44.2705,14.7095 25.7395,21.9565 11.4635,35.1135 C10.5255,35.9775 9.3435,36.4075 8.1645,36.4075" id="Fill-36"></path>
                </g>
            </g>
        </g>
    </g>
</svg>