<?xml version="1.0" encoding="UTF-8"?>
<svg width="123px" height="92px" viewBox="0 0 123 92" version="1.1" xmlns="http://www.w3.org/2000/svg" xmlns:xlink="http://www.w3.org/1999/xlink">
    <!-- Generator: sketchtool 46.1 (44463) - http://www.bohemiancoding.com/sketch -->
    <title>11A297FA-FBC5-4F07-9194-1F0AED804B54</title>
    <desc>Created with sketchtool.</desc>
    <defs></defs>
    <g id="Page-1" stroke="none" stroke-width="1" fill="none" fill-rule="evenodd">
        <g id="08-Dark-Orange---Green" transform="translate(-238.000000, -561.000000)">
            <g id="storage" transform="translate(238.000000, 561.000000)">
                <g id="Group-7" fill="#E99D24">
                    <path d="M3,88.3432 L119.999,88.3432 L119.999,23.4922 C119.999,17.0592 114.765,11.8242 108.331,11.8242 L14.669,11.8242 C8.235,11.8242 3,17.0592 3,23.4922 L3,88.3432 Z M122.999,91.3432 L0,91.3432 L0,23.4922 C0,15.4052 6.581,8.8242 14.669,8.8242 L108.331,8.8242 C116.419,8.8242 122.999,15.4052 122.999,23.4922 L122.999,91.3432 Z" id="Fill-37"></path>
                    <polygon id="Fill-38" points="1.5 42.274 49.232 42.274 49.232 39.274 1.5 39.274"></polygon>
                    <polygon id="Fill-39" points="73.767 42.274 121.499 42.274 121.499 39.274 73.767 39.274"></polygon>
                    <polygon id="Fill-40" points="17.525 89.843 20.525 89.843 20.525 10.324 17.525 10.324"></polygon>
                    <polygon id="Fill-41" points="102.475 89.843 105.475 89.843 105.475 10.324 102.475 10.324"></polygon>
                    <path d="M75.2671,10.3247 L72.2671,10.3247 C72.2671,6.6247 69.2571,3.6147 65.5571,3.6147 L57.4421,3.6147 C53.7421,3.6147 50.7321,6.6247 50.7321,10.3247 L47.7321,10.3247 C47.7321,4.9707 52.0881,0.6147 57.4421,0.6147 L65.5571,0.6147 C70.9111,0.6147 75.2671,4.9707 75.2671,10.3247" id="Fill-44"></path>
                </g>
                <g id="Group-6" transform="translate(47.000000, 26.000000)" fill="#00A375">
                    <path d="M5.7026,3.727 C4.6166,3.727 3.7326,4.611 3.7326,5.698 L3.7326,30.337 C3.7326,31.424 4.6166,32.308 5.7026,32.308 L23.2966,32.308 C24.3826,32.308 25.2666,31.424 25.2666,30.337 L25.2666,5.698 C25.2666,4.611 24.3826,3.727 23.2966,3.727 L5.7026,3.727 Z M23.2966,35.308 L5.7026,35.308 C2.9616,35.308 0.7326,33.079 0.7326,30.337 L0.7326,5.698 C0.7326,2.956 2.9616,0.727 5.7026,0.727 L23.2966,0.727 C26.0366,0.727 28.2666,2.956 28.2666,5.698 L28.2666,30.337 C28.2666,33.079 26.0366,35.308 23.2966,35.308 L23.2966,35.308 Z" id="Fill-42"></path>
                    <path d="M14.4995,13.5307 C13.6495,13.5307 12.9585,14.2217 12.9585,15.0717 L12.9585,20.9637 C12.9585,21.8127 13.6495,22.5047 14.4995,22.5047 C15.3495,22.5047 16.0405,21.8127 16.0405,20.9637 L16.0405,15.0717 C16.0405,14.2217 15.3495,13.5307 14.4995,13.5307 M14.4995,25.5047 C11.9965,25.5047 9.9585,23.4677 9.9585,20.9637 L9.9585,15.0717 C9.9585,12.5677 11.9965,10.5307 14.4995,10.5307 C17.0035,10.5307 19.0405,12.5677 19.0405,15.0717 L19.0405,20.9637 C19.0405,23.4677 17.0035,25.5047 14.4995,25.5047" id="Fill-43"></path>
                </g>
            </g>
        </g>
    </g>
</svg>