<?xml version="1.0" encoding="UTF-8"?>
<svg width="154px" height="54px" viewBox="0 0 154 54" version="1.1" xmlns="http://www.w3.org/2000/svg" xmlns:xlink="http://www.w3.org/1999/xlink">
    <!-- Generator: sketchtool 46.1 (44463) - http://www.bohemiancoding.com/sketch -->
    <title>544E06EC-89C0-4159-BB7C-EC53712D3529</title>
    <desc>Created with sketchtool.</desc>
    <defs></defs>
    <g id="Page-1" stroke="none" stroke-width="1" fill="none" fill-rule="evenodd">
        <g id="08-Dark-Orange---Green" transform="translate(-1311.000000, -580.000000)">
            <g id="undisturbed" transform="translate(1311.000000, 580.000000)">
                <path d="M43.1855,53.396 C42.2005,53.396 41.2165,53.145 40.3385,52.642 L3.7775,31.731 C1.9695,30.698 0.8905,28.837 0.8905,26.755 C0.8905,24.672 1.9695,22.812 3.7775,21.779 L40.3385,0.868 C42.0945,-0.138 44.2765,-0.138 46.0325,0.868 L111.3035,38.199 C111.4155,38.261 111.5535,38.264 111.6645,38.199 L131.1215,27.072 C131.2725,26.985 131.3045,26.851 131.3045,26.755 C131.3045,26.659 131.2725,26.525 131.1215,26.438 L111.6655,15.311 C111.5535,15.249 111.4155,15.247 111.3045,15.311 L96.7145,23.655 C95.9955,24.068 95.0795,23.816 94.6675,23.098 C94.2565,22.378 94.5065,21.462 95.2255,21.051 L109.8145,12.708 C110.8445,12.118 112.1245,12.118 113.1555,12.708 L132.6105,23.834 C133.6715,24.441 134.3045,25.533 134.3045,26.755 C134.3045,27.977 133.6715,29.069 132.6105,29.675 L113.1545,40.802 C112.1245,41.392 110.8445,41.392 109.8135,40.802 L44.5425,3.471 C43.7055,2.993 42.6655,2.993 41.8285,3.471 L5.2665,24.382 C4.4045,24.875 3.8905,25.762 3.8905,26.755 C3.8905,27.748 4.4045,28.634 5.2665,29.127 L41.8285,50.039 C42.6645,50.517 43.7055,50.517 44.5415,50.039 L69.9935,35.483 C70.7125,35.07 71.6275,35.322 72.0395,36.04 C72.4515,36.759 72.2015,37.675 71.4825,38.086 L46.0315,52.642 C45.1545,53.145 44.1695,53.396 43.1855,53.396" id="Fill-57" fill="#E99D24"></path>
                <path d="M111.6846,53.8452 C110.7006,53.8452 109.7156,53.5942 108.8376,53.0912 L43.5656,15.7602 C43.4546,15.6982 43.3156,15.6982 43.2036,15.7602 L23.7476,26.8872 C23.5966,26.9742 23.5646,27.1082 23.5646,27.2042 C23.5646,27.3002 23.5966,27.4342 23.7476,27.5212 L43.2036,38.6482 C43.3156,38.7102 43.4546,38.7102 43.5656,38.6482 L58.1546,30.3042 C58.8726,29.8912 59.7886,30.1432 60.2016,30.8612 C60.6126,31.5802 60.3626,32.4962 59.6436,32.9082 L45.0556,41.2512 C44.0246,41.8412 42.7446,41.8412 41.7146,41.2512 L22.2586,30.1242 C21.1986,29.5182 20.5646,28.4262 20.5646,27.2042 C20.5646,25.9822 21.1986,24.8902 22.2586,24.2832 L41.7146,13.1572 C42.7446,12.5672 44.0246,12.5672 45.0556,13.1572 L110.3276,50.4882 C111.1646,50.9662 112.2036,50.9662 113.0406,50.4882 L149.6026,29.5762 C150.4646,29.0832 150.9786,28.1972 150.9786,27.2042 C150.9786,26.2112 150.4646,25.3242 149.6026,24.8312 L113.0406,3.9202 C112.2046,3.4422 111.1646,3.4422 110.3276,3.9202 L84.8766,18.4762 C84.1576,18.8892 83.2416,18.6372 82.8296,17.9192 C82.4186,17.1992 82.6676,16.2832 83.3876,15.8722 L108.8376,1.3172 C110.5946,0.3102 112.7756,0.3122 114.5306,1.3172 L151.0926,22.2282 C152.8996,23.2612 153.9786,25.1212 153.9786,27.2042 C153.9786,29.2862 152.8996,31.1472 151.0926,32.1802 L114.5306,53.0912 C113.6526,53.5942 112.6686,53.8452 111.6846,53.8452" id="Fill-58" fill="#00A375"></path>
            </g>
        </g>
    </g>
</svg>