<?xml version="1.0" encoding="UTF-8"?>
<svg width="118px" height="118px" viewBox="0 0 118 118" version="1.1" xmlns="http://www.w3.org/2000/svg" xmlns:xlink="http://www.w3.org/1999/xlink">
    <!-- Generator: sketchtool 46.1 (44463) - http://www.bohemiancoding.com/sketch -->
    <title>641E2C84-EE38-4E2A-8793-03DC3CFC7D11</title>
    <desc>Created with sketchtool.</desc>
    <defs></defs>
    <g id="Page-1" stroke="none" stroke-width="1" fill="none" fill-rule="evenodd">
        <g id="08-Dark-Orange---Green" transform="translate(-780.000000, -555.000000)">
            <g id="failure-resistant" transform="translate(780.000000, 555.000000)">
                <g id="Group-10" transform="translate(57.000000, 3.000000)" fill="#00A375">
                    <path d="M1.9717,57.4741 C1.5877,57.4741 1.2037,57.3281 0.9107,57.0351 C0.3257,56.4491 0.3257,55.4991 0.9107,54.9131 L48.0137,7.8121 C48.5987,7.2261 49.5487,7.2261 50.1347,7.8121 C50.7207,8.3981 50.7207,9.3471 50.1347,9.9331 L3.0327,57.0351 C2.7397,57.3281 2.3557,57.4741 1.9717,57.4741" id="Fill-45"></path>
                    <path d="M32.0952,21.6919 C31.3052,21.6919 30.6442,21.0749 30.5992,20.2769 L30.1402,12.1739 C30.0942,11.3469 30.7262,10.6379 31.5532,10.5909 C32.3732,10.5569 33.0892,11.1769 33.1362,12.0039 L33.5942,20.1069 C33.6412,20.9339 33.0082,21.6429 32.1812,21.6899 C32.1532,21.6909 32.1242,21.6919 32.0952,21.6919" id="Fill-46"></path>
                    <path d="M37.0576,16.73 C36.2676,16.73 35.6066,16.113 35.5616,15.315 L35.1026,7.212 C35.0566,6.385 35.6886,5.676 36.5156,5.629 C37.3386,5.605 38.0516,6.215 38.0986,7.042 L38.5566,15.145 C38.6036,15.972 37.9706,16.681 37.1436,16.728 C37.1156,16.729 37.0866,16.73 37.0576,16.73" id="Fill-47"></path>
                    <path d="M42.0195,11.768 C41.2295,11.768 40.5685,11.151 40.5235,10.353 L40.0645,2.249 C40.0185,1.422 40.6505,0.713 41.4775,0.666 C42.2905,0.639 43.0135,1.252 43.0605,2.08 L43.5185,10.183 C43.5655,11.01 42.9325,11.719 42.1055,11.766 C42.0775,11.767 42.0485,11.768 42.0195,11.768" id="Fill-48"></path>
                    <path d="M55.7822,17.8833 C55.7532,17.8833 55.7252,17.8823 55.6962,17.8813 L47.5932,17.4233 C46.7662,17.3763 46.1332,16.6673 46.1802,15.8403 C46.2272,15.0133 46.9382,14.4003 47.7622,14.4273 L55.8652,14.8853 C56.6922,14.9323 57.3252,15.6413 57.2782,16.4683 C57.2332,17.2663 56.5722,17.8833 55.7822,17.8833" id="Fill-49"></path>
                    <path d="M50.8203,22.8452 C50.7913,22.8452 50.7633,22.8442 50.7343,22.8432 L42.6313,22.3852 C41.8043,22.3382 41.1713,21.6292 41.2183,20.8022 C41.2643,19.9752 41.9863,19.3662 42.8003,19.3892 L50.9033,19.8472 C51.7303,19.8942 52.3633,20.6032 52.3163,21.4302 C52.2713,22.2282 51.6103,22.8452 50.8203,22.8452" id="Fill-50"></path>
                    <path d="M45.8579,27.8071 C45.8289,27.8071 45.8009,27.8061 45.7719,27.8051 L37.6689,27.3471 C36.8419,27.3001 36.2089,26.5911 36.2559,25.7641 C36.3019,24.9371 37.0209,24.3171 37.8379,24.3511 L45.9409,24.8091 C46.7679,24.8561 47.4009,25.5651 47.3539,26.3921 C47.3089,27.1901 46.6479,27.8071 45.8579,27.8071" id="Fill-51"></path>
                </g>
                <g id="Group-9" fill="#E99D24">
                    <path d="M58.9717,117.145 C44.0687,117.145 29.1647,111.472 17.8197,100.126 C-4.8713,77.435 -4.8713,40.513 17.8197,17.823 C35.9807,-0.34 63.4357,-4.486 86.1387,7.507 C86.8717,7.894 87.1517,8.801 86.7647,9.534 C86.3787,10.267 85.4717,10.547 84.7377,10.16 C63.2087,-1.212 37.1667,2.717 19.9407,19.944 C-1.5803,41.465 -1.5803,76.483 19.9407,98.005 C30.7007,108.764 44.8387,114.145 58.9717,114.146 C73.1077,114.148 87.2407,108.767 98.0027,98.005 C115.2277,80.779 119.1597,54.739 107.7857,33.207 C107.3987,32.475 107.6797,31.568 108.4117,31.181 C109.1467,30.793 110.0527,31.074 110.4387,31.807 C122.4307,54.508 118.2857,81.963 100.1237,100.126 C88.7777,111.472 73.8747,117.145 58.9717,117.145" id="Fill-52"></path>
                    <path d="M58.9717,67.4731 C56.7937,67.4731 54.6177,66.6441 52.9597,64.9871 C51.3537,63.3801 50.4687,61.2451 50.4687,58.9741 C50.4687,56.7021 51.3537,54.5681 52.9597,52.9621 C53.6457,52.2751 54.4367,51.7161 55.3087,51.3021 C56.0557,50.9481 56.9517,51.2641 57.3077,52.0131 C57.6627,52.7611 57.3447,53.6561 56.5967,54.0111 C56.0347,54.2791 55.5247,54.6391 55.0807,55.0831 C54.0407,56.1221 53.4687,57.5041 53.4687,58.9741 C53.4687,60.4441 54.0417,61.8261 55.0807,62.8661 C57.2257,65.0101 60.7177,65.0101 62.8627,62.8661 C63.3057,62.4211 63.6667,61.9111 63.9337,61.3491 C64.2897,60.6021 65.1847,60.2841 65.9327,60.6391 C66.6807,60.9941 66.9987,61.8901 66.6427,62.6381 C66.2287,63.5091 65.6707,64.2991 64.9847,64.9871 C63.3267,66.6441 61.1487,67.4731 58.9717,67.4731" id="Fill-53"></path>
                    <path d="M58.8682,80.4585 C53.3832,80.4585 47.8972,78.3885 43.7002,74.2465 L43.7002,74.2465 L43.5962,74.1435 C39.5822,70.0755 37.3732,64.6945 37.3732,58.9745 C37.3732,53.2055 39.6202,47.7815 43.7002,43.7025 C50.1692,37.2315 60.0562,35.5375 68.3072,39.4925 C69.0552,39.8505 69.3702,40.7465 69.0122,41.4935 C68.6532,42.2405 67.7602,42.5585 67.0112,42.1975 C59.9082,38.7935 51.3932,40.2495 45.8212,45.8235 C42.3082,49.3365 40.3732,54.0075 40.3732,58.9755 C40.3732,63.9175 42.2882,68.5655 45.7682,72.0725 C53.0242,79.2715 64.7852,79.2545 72.0192,72.0215 C77.5912,66.4495 79.0492,57.9345 75.6452,50.8315 C75.2862,50.0845 75.6022,49.1875 76.3492,48.8305 C77.0972,48.4705 77.9922,48.7875 78.3502,49.5345 C82.3032,57.7835 80.6112,67.6725 74.1402,74.1435 C69.9302,78.3545 64.3992,80.4585 58.8682,80.4585" id="Fill-54"></path>
                    <path d="M58.8682,93.5473 C49.9842,93.5473 41.1002,90.1653 34.3372,83.4023 L34.3372,83.4013 C20.9152,69.8673 20.9492,47.9353 34.4402,34.4433 C46.0432,22.8403 64.3892,20.9723 78.0622,29.9983 C78.7532,30.4553 78.9432,31.3853 78.4872,32.0763 C78.0312,32.7693 77.1022,32.9593 76.4092,32.5023 C63.9192,24.2553 47.1622,25.9653 36.5612,36.5643 C24.2052,48.9213 24.2052,69.0273 36.5612,81.3843 C48.9272,93.6373 68.9552,93.6023 81.2792,81.2813 C91.8782,70.6813 93.5862,53.9233 85.3402,41.4343 C84.8842,40.7423 85.0742,39.8133 85.7652,39.3563 C86.4582,38.9013 87.3882,39.0903 87.8442,39.7813 C96.8712,53.4533 95.0022,71.7993 83.4002,83.4023 C76.6372,90.1653 67.7522,93.5473 58.8682,93.5473" id="Fill-55"></path>
                    <path d="M58.9556,105.6636 C46.9976,105.6636 35.0406,101.1116 25.9366,92.0096 C17.1176,83.1896 12.2606,71.4636 12.2606,58.9906 C12.2606,46.5176 17.1176,34.7916 25.9366,25.9726 C40.4346,11.4746 63.1426,8.1536 81.1586,17.8976 C81.8876,18.2916 82.1586,19.2016 81.7646,19.9316 C81.3706,20.6596 80.4586,20.9316 79.7316,20.5366 C62.8726,11.4196 41.6236,14.5266 28.0586,28.0936 C19.8056,36.3466 15.2606,47.3186 15.2606,58.9906 C15.2606,70.6166 19.7706,81.5506 27.9626,89.7916 L27.9626,89.7916 L28.0636,89.8926 C45.0956,106.9256 72.8166,106.9236 89.8526,89.8886 C103.4186,76.3216 106.5266,55.0716 97.4096,38.2146 C97.0156,37.4856 97.2866,36.5746 98.0156,36.1816 C98.7436,35.7856 99.6536,36.0586 100.0476,36.7866 C109.7916,54.8036 106.4716,77.5116 91.9746,92.0096 C82.8716,101.1116 70.9136,105.6636 58.9556,105.6636" id="Fill-56"></path>
                </g>
            </g>
        </g>
    </g>
</svg>