<?xml version="1.0" encoding="UTF-8"?>
<svg width="101px" height="108px" viewBox="0 0 101 108" version="1.1" xmlns="http://www.w3.org/2000/svg" xmlns:xlink="http://www.w3.org/1999/xlink">
    <!-- Generator: sketchtool 46.1 (44463) - http://www.bohemiancoding.com/sketch -->
    <title>4254A584-E4F4-49BB-810E-18D922DF3187</title>
    <desc>Created with sketchtool.</desc>
    <defs></defs>
    <g id="Page-1" stroke="none" stroke-width="1" fill="none" fill-rule="evenodd">
        <g id="08-Dark-Orange---Green" transform="translate(-249.000000, -224.000000)">
            <g id="footprint" transform="translate(249.000000, 224.000000)">
                <g id="Group" transform="translate(0.000000, 13.000000)" fill="#E99D24">
                    <path d="M46.4937,3.0254 C22.6477,3.8184 3.4937,23.4644 3.4937,47.5004 C3.4937,72.0384 23.4557,92.0004 47.9937,92.0004 C72.5317,92.0004 92.4937,72.0384 92.4937,47.5004 C92.4937,42.5834 91.6927,37.7554 90.1127,33.1294 L48.5257,48.9024 C48.0647,49.0774 47.5467,49.0144 47.1417,48.7344 C46.7357,48.4554 46.4937,47.9934 46.4937,47.5004 L46.4937,3.0254 Z M47.9937,95.0004 C21.8027,95.0004 0.4937,73.6924 0.4937,47.5004 C0.4937,21.3094 21.8027,0.0004 47.9937,0.0004 C48.8227,0.0004 49.4937,0.6714 49.4937,1.5004 L49.4937,45.3274 L90.4737,29.7834 C91.2477,29.4884 92.1147,29.8794 92.4087,30.6534 C94.4557,36.0474 95.4937,41.7164 95.4937,47.5004 C95.4937,73.6924 74.1847,95.0004 47.9937,95.0004 Z" id="Combined-Shape"></path>
                    <polygon id="Fill-1" points="46.8096 48.4214 18.8096 12.4214 21.1776 10.5794 49.1776 46.5794"></polygon>
                </g>
                <g id="Group-2" transform="translate(54.000000, 0.000000)" fill="#00A375">
                    <path d="M3.4937,17.813 L3.4937,22.049 L19.5547,6.606 C18.5167,6.159 17.4667,5.753 16.4127,5.391 L3.4937,17.813 Z M1.9937,27.072 C1.7957,27.072 1.5957,27.033 1.4067,26.952 C0.8527,26.716 0.4937,26.173 0.4937,25.572 L0.4937,17.174 C0.4937,16.766 0.6597,16.376 0.9537,16.093 L14.9857,2.601 C15.3827,2.219 15.9577,2.085 16.4827,2.253 C18.6317,2.941 20.7697,3.803 22.8387,4.816 C23.2787,5.031 23.5857,5.447 23.6607,5.931 C23.7367,6.415 23.5717,6.905 23.2187,7.244 L3.0337,26.653 C2.7477,26.927 2.3737,27.072 1.9937,27.072 L1.9937,27.072 Z" id="Fill-4"></path>
                    <path d="M3.4937,9.415 L3.4937,13.651 L13.1117,4.403 C11.9237,4.099 10.7187,3.842 9.5047,3.635 L3.4937,9.415 Z M1.9937,18.674 C1.7957,18.674 1.5957,18.635 1.4067,18.554 C0.8527,18.319 0.4937,17.776 0.4937,17.174 L0.4937,8.776 C0.4937,8.368 0.6597,7.978 0.9537,7.695 L7.9647,0.954 C8.3017,0.629 8.7697,0.483 9.2317,0.552 C11.6957,0.93 14.1357,1.502 16.4827,2.253 C16.9857,2.415 17.3677,2.829 17.4867,3.343 C17.6057,3.858 17.4457,4.397 17.0647,4.763 L3.0337,18.255 C2.7487,18.53 2.3737,18.674 1.9937,18.674 L1.9937,18.674 Z" id="Fill-6"></path>
                    <path d="M3.4937,26.2104 L3.4937,30.4464 L25.2247,9.5514 C24.3177,8.9934 23.3907,8.4684 22.4527,7.9814 L3.4937,26.2104 Z M1.9937,35.4694 C1.7957,35.4694 1.5957,35.4304 1.4067,35.3494 C0.8527,35.1144 0.4937,34.5714 0.4937,33.9694 L0.4937,25.5714 C0.4937,25.1634 0.6597,24.7734 0.9537,24.4904 L21.1397,5.0824 C21.5937,4.6444 22.2727,4.5374 22.8387,4.8154 C24.7707,5.7624 26.6657,6.8574 28.4707,8.0734 C28.8467,8.3264 29.0877,8.7354 29.1267,9.1874 C29.1667,9.6394 28.9987,10.0844 28.6727,10.3984 L3.0337,35.0504 C2.7477,35.3254 2.3737,35.4694 1.9937,35.4694 L1.9937,35.4694 Z" id="Fill-8"></path>
                    <path d="M3.4937,3.0259 L3.4937,5.2529 L5.6777,3.1529 C4.9497,3.0929 4.2217,3.0509 3.4937,3.0259 M1.9937,10.2759 C1.7957,10.2759 1.5957,10.2369 1.4067,10.1559 C0.8527,9.9209 0.4937,9.3779 0.4937,8.7759 L0.4937,1.5009 C0.4937,0.6719 1.1647,0.0009 1.9937,0.0009 C4.4017,0.0009 6.8367,0.1859 9.2307,0.5519 C9.7957,0.6389 10.2617,1.0379 10.4337,1.5819 C10.6067,2.1259 10.4557,2.7209 10.0437,3.1159 L3.0337,9.8579 C2.7487,10.1319 2.3737,10.2759 1.9937,10.2759" id="Fill-10"></path>
                    <path d="M36.6113,19.5605 L13.9303,41.3685 L21.2063,38.6085 L38.4623,22.0165 C37.8773,21.1825 37.2583,20.3615 36.6113,19.5605 M7.6013,46.8735 C7.0993,46.8735 6.6153,46.6205 6.3333,46.1755 C5.9523,45.5735 6.0483,44.7865 6.5613,44.2925 L35.6903,16.2855 C35.9863,15.9995 36.3823,15.8525 36.7973,15.8675 C37.2083,15.8865 37.5923,16.0725 37.8623,16.3835 C39.2463,17.9775 40.5263,19.6645 41.6673,21.3945 C42.0653,21.9985 41.9753,22.8005 41.4543,23.3015 L23.0643,40.9835 C22.9193,41.1235 22.7463,41.2325 22.5573,41.3045 L8.1333,46.7755 C7.9593,46.8415 7.7793,46.8735 7.6013,46.8735" id="Fill-12"></path>
                    <path d="M40.127,24.5776 L28.355,35.8966 L35.63,33.1376 L41.659,27.3406 C41.181,26.4026 40.669,25.4786 40.127,24.5776 M22.025,41.4026 C21.523,41.4026 21.039,41.1496 20.757,40.7046 C20.377,40.1016 20.472,39.3146 20.985,38.8216 L39.375,21.1396 C39.695,20.8296 40.133,20.6756 40.581,20.7296 C41.024,20.7786 41.422,21.0226 41.667,21.3946 C42.846,23.1826 43.914,25.0736 44.843,27.0136 C45.123,27.5966 44.996,28.2936 44.53,28.7426 L37.488,35.5126 C37.342,35.6526 37.17,35.7616 36.981,35.8336 L22.557,41.3046 C22.383,41.3706 22.203,41.4026 22.025,41.4026" id="Fill-14"></path>
                    <path d="M3.4937,34.6084 L3.4937,38.8444 L30.2427,13.1254 C29.4527,12.4774 28.6327,11.8504 27.7877,11.2494 L3.4937,34.6084 Z M1.9937,43.8674 C1.7957,43.8674 1.5957,43.8284 1.4067,43.7474 C0.8527,43.5114 0.4937,42.9684 0.4937,42.3674 L0.4937,33.9694 C0.4937,33.5614 0.6597,33.1714 0.9537,32.8884 L26.5937,8.2364 C27.1017,7.7464 27.8847,7.6784 28.4707,8.0734 C30.2407,9.2644 31.9227,10.5644 33.4707,11.9364 C33.7837,12.2134 33.9667,12.6094 33.9747,13.0274 C33.9837,13.4464 33.8167,13.8494 33.5147,14.1394 L3.0337,43.4484 C2.7477,43.7224 2.3737,43.8674 1.9937,43.8674 L1.9937,43.8674 Z" id="Fill-16"></path>
                    <path d="M42.9985,30.2148 L42.7785,30.4258 L43.0445,30.3248 C43.0295,30.2878 43.0145,30.2518 42.9985,30.2148 M36.4495,35.9308 C35.9465,35.9308 35.4625,35.6778 35.1815,35.2338 C34.8005,34.6308 34.8955,33.8438 35.4095,33.3498 L42.4505,26.5798 C42.7975,26.2458 43.2805,26.0988 43.7575,26.1848 C44.2315,26.2708 44.6355,26.5788 44.8435,27.0128 C45.4285,28.2348 45.9545,29.4598 46.4085,30.6528 C46.5495,31.0248 46.5375,31.4378 46.3735,31.8008 C46.2105,32.1638 45.9095,32.4468 45.5375,32.5878 L36.9805,35.8338 C36.8065,35.8998 36.6265,35.9308 36.4495,35.9308" id="Fill-18"></path>
                    <path d="M3.4937,43.0058 L3.4937,45.3268 L6.7827,44.0798 L34.6467,17.2878 C33.9507,16.5338 33.2337,15.8078 32.5007,15.1148 L3.4937,43.0058 Z M1.9937,49.0008 C1.6937,49.0008 1.3957,48.9098 1.1417,48.7348 C0.7357,48.4548 0.4937,47.9938 0.4937,47.5008 L0.4937,42.3668 C0.4937,41.9588 0.6597,41.5688 0.9537,41.2858 L31.4357,11.9778 C32.0007,11.4348 32.8857,11.4188 33.4707,11.9358 C35.0017,13.2928 36.4787,14.7888 37.8627,16.3828 C38.3857,16.9858 38.3447,17.8938 37.7687,18.4468 L8.6407,46.4548 C8.4947,46.5948 8.3227,46.7038 8.1327,46.7758 L2.5257,48.9028 C2.3537,48.9678 2.1727,49.0008 1.9937,49.0008 L1.9937,49.0008 Z" id="Fill-20"></path>
                </g>
            </g>
        </g>
    </g>
</svg>