<?xml version="1.0" encoding="UTF-8"?>
<svg width="127px" height="78px" viewBox="0 0 127 78" version="1.1" xmlns="http://www.w3.org/2000/svg" xmlns:xlink="http://www.w3.org/1999/xlink">
    <!-- Generator: sketchtool 46.1 (44463) - http://www.bohemiancoding.com/sketch -->
    <title>C9A2BECD-7E67-4744-8A58-89693F0223B9</title>
    <desc>Created with sketchtool.</desc>
    <defs></defs>
    <g id="Page-1" stroke="none" stroke-width="1" fill="none" fill-rule="evenodd">
        <g id="08-Dark-Orange---Green" transform="translate(-785.000000, -239.000000)">
            <g id="multiple" transform="translate(785.000000, 239.000000)">
                <g id="Group-4" transform="translate(12.000000, 0.000000)" fill="#E99D24">
                    <path d="M3.6338,52.3965 L0.6338,52.3965 L0.6338,45.0805 C0.6338,40.9005 4.0338,37.5005 8.2138,37.5005 L40.9708,37.5005 C43.4958,37.5005 45.5508,35.4455 45.5508,32.9205 L45.5508,25.6045 L48.5508,25.6045 L48.5508,32.9205 C48.5508,37.1005 45.1498,40.5005 40.9708,40.5005 L8.2138,40.5005 C5.6888,40.5005 3.6338,42.5555 3.6338,45.0805 L3.6338,52.3965 Z" id="Fill-22"></path>
                    <path d="M103.3003,52.3965 L100.3003,52.3965 L100.3003,45.0805 C100.3003,42.5555 98.2463,40.5005 95.7203,40.5005 L62.9643,40.5005 C58.7843,40.5005 55.3833,37.1005 55.3833,32.9205 L55.3833,25.6045 L58.3833,25.6045 L58.3833,32.9205 C58.3833,35.4455 60.4383,37.5005 62.9643,37.5005 L95.7203,37.5005 C99.9003,37.5005 103.3003,40.9005 103.3003,45.0805 L103.3003,52.3965 Z" id="Fill-24"></path>
                    <polygon id="Fill-26" points="50.634 52.396 53.634 52.396 53.634 25.604 50.634 25.604"></polygon>
                    <path d="M43.6499,3.7715 C42.6299,3.7715 41.7999,4.6015 41.7999,5.6205 L41.7999,22.2555 C41.7999,23.2745 42.6299,24.1045 43.6499,24.1045 L60.2849,24.1045 C61.3039,24.1045 62.1339,23.2745 62.1339,22.2555 L62.1339,5.6205 C62.1339,4.6015 61.3039,3.7715 60.2849,3.7715 L43.6499,3.7715 Z M60.2849,27.1045 L43.6499,27.1045 C40.9759,27.1045 38.7999,24.9295 38.7999,22.2555 L38.7999,5.6205 C38.7999,2.9465 40.9759,0.7715 43.6499,0.7715 L60.2849,0.7715 C62.9589,0.7715 65.1339,2.9465 65.1339,5.6205 L65.1339,22.2555 C65.1339,24.9295 62.9589,27.1045 60.2849,27.1045 L60.2849,27.1045 Z" id="Fill-31"></path>
                </g>
                <g id="Group-5" transform="translate(0.000000, 50.000000)" fill="#00A375">
                    <path d="M105.4829,3.8965 C104.4629,3.8965 103.6339,4.7265 103.6339,5.7455 L103.6339,22.3805 C103.6339,23.3995 104.4629,24.2295 105.4829,24.2295 L122.1179,24.2295 C123.1379,24.2295 123.9669,23.3995 123.9669,22.3805 L123.9669,5.7455 C123.9669,4.7265 123.1379,3.8965 122.1179,3.8965 L105.4829,3.8965 Z M122.1179,27.2295 L105.4829,27.2295 C102.8089,27.2295 100.6339,25.0545 100.6339,22.3805 L100.6339,5.7455 C100.6339,3.0715 102.8089,0.8965 105.4829,0.8965 L122.1179,0.8965 C124.7919,0.8965 126.9669,3.0715 126.9669,5.7455 L126.9669,22.3805 C126.9669,25.0545 124.7919,27.2295 122.1179,27.2295 L122.1179,27.2295 Z" id="Fill-28"></path>
                    <path d="M5.8164,3.8965 C4.7964,3.8965 3.9674,4.7265 3.9674,5.7455 L3.9674,22.3805 C3.9674,23.3995 4.7964,24.2295 5.8164,24.2295 L22.4514,24.2295 C23.4704,24.2295 24.3004,23.3995 24.3004,22.3805 L24.3004,5.7455 C24.3004,4.7265 23.4704,3.8965 22.4514,3.8965 L5.8164,3.8965 Z M22.4514,27.2295 L5.8164,27.2295 C3.1424,27.2295 0.9674,25.0545 0.9674,22.3805 L0.9674,5.7455 C0.9674,3.0715 3.1424,0.8965 5.8164,0.8965 L22.4514,0.8965 C25.1254,0.8965 27.3004,3.0715 27.3004,5.7455 L27.3004,22.3805 C27.3004,25.0545 25.1254,27.2295 22.4514,27.2295 L22.4514,27.2295 Z" id="Fill-29"></path>
                    <path d="M55.6499,3.8965 C54.6299,3.8965 53.7999,4.7265 53.7999,5.7455 L53.7999,22.3805 C53.7999,23.3995 54.6299,24.2295 55.6499,24.2295 L72.2849,24.2295 C73.3039,24.2295 74.1339,23.3995 74.1339,22.3805 L74.1339,5.7455 C74.1339,4.7265 73.3039,3.8965 72.2849,3.8965 L55.6499,3.8965 Z M72.2849,27.2295 L55.6499,27.2295 C52.9759,27.2295 50.7999,25.0545 50.7999,22.3805 L50.7999,5.7455 C50.7999,3.0715 52.9759,0.8965 55.6499,0.8965 L72.2849,0.8965 C74.9589,0.8965 77.1339,3.0715 77.1339,5.7455 L77.1339,22.3805 C77.1339,25.0545 74.9589,27.2295 72.2849,27.2295 L72.2849,27.2295 Z" id="Fill-30"></path>
                </g>
            </g>
        </g>
    </g>
</svg>