<svg xmlns="http://www.w3.org/2000/svg" xmlns:xlink="http://www.w3.org/1999/xlink" width="250" height="42" viewBox="0 0 250 42">
    <defs>
        <path id="a" d="M0 41.842h247.734V0H0z"/>
    </defs>
    <g fill="none" fill-rule="evenodd">
        <path fill="#2A506F" d="M56.88 19.986c-.993.805-1.489 1.83-1.489 3.077 0 1.32.457 2.426 1.37 3.321.912.895 2.113 1.342 3.601 1.342 1.41 0 2.55-.425 3.424-1.278.873-.852 1.31-1.912 1.31-3.182 0-1.25-.437-2.315-1.31-3.194-.874-.88-2.015-1.32-3.424-1.32-1.33.019-2.49.43-3.482 1.234zM51.67 10.7h3.96v6.588h.059c.437-.578 1.017-1.025 1.742-1.342a8.584 8.584 0 0 1 2.247-.637c.198-.018.387-.031.566-.04.178-.01.357-.014.535-.014 2.421 0 4.406.805 5.954 2.413 1.548 1.609 2.322 3.47 2.322 5.585 0 .307-.02.628-.06.962a5.72 5.72 0 0 1-.208.99 8.557 8.557 0 0 1-.715 1.898 7.322 7.322 0 0 1-1.13 1.626 7.12 7.12 0 0 1-2.71 1.857 8.97 8.97 0 0 1-3.333.638c-1.132 0-2.179-.196-3.141-.584-.963-.388-1.762-1.025-2.396-1.91l-.06-.028v2.033h-3.631V10.7zM84.266 23.199c0-1.247-.442-2.3-1.325-3.16-.883-.857-2.03-1.277-3.438-1.26-1.45-.017-2.635.416-3.557 1.302-.923.886-1.385 1.989-1.385 3.307 0 1.23.481 2.264 1.444 3.104.963.84 2.109 1.253 3.438 1.234 1.43.019 2.59-.406 3.483-1.274.893-.867 1.34-1.943 1.34-3.226v-.027zm3.75 7.536h-3.631v-2.033h-.06c-.496.65-1.151 1.184-1.965 1.6a8.63 8.63 0 0 1-2.53.84l-.55.055c-.19.017-.373.026-.55.026-1.271 0-2.423-.222-3.454-.664a7.542 7.542 0 0 1-2.62-1.83 7.808 7.808 0 0 1-1.517-2.494 8.325 8.325 0 0 1-.537-2.982c0-1.049.164-2.015.491-2.901.328-.885.869-1.717 1.623-2.494.833-.886 1.76-1.541 2.783-1.966 1.022-.424 2.138-.637 3.349-.637 1.131 0 2.173.222 3.125.664a6.431 6.431 0 0 1 2.412 1.939v-2.142h3.632v15.02z"/>
        <mask id="b" fill="#fff">
            <use xlink:href="#a"/>
        </mask>
        <path fill="#2A506F" d="M90.963 30.735h3.959V10.7h-3.96zM110.609 21.626c-.318-.886-.893-1.581-1.727-2.087a5.23 5.23 0 0 0-2.768-.76h-.238a5.678 5.678 0 0 0-2.68.847c-.832.51-1.388 1.176-1.666 2h9.079zm-9.019 3.2c.297.885.848 1.59 1.652 2.114a4.827 4.827 0 0 0 2.694.786c.753 0 1.463-.117 2.127-.352.665-.236 1.187-.551 1.564-.95l4.376-.027c-.497 1.356-1.503 2.5-3.021 3.43-1.519.931-3.151 1.397-4.897 1.397-2.402 0-4.45-.764-6.147-2.291s-2.546-3.385-2.546-5.572c0-2.223.844-4.13 2.53-5.72 1.688-1.59 3.761-2.386 6.222-2.386 2.361 0 4.361.789 5.998 2.366 1.637 1.576 2.456 3.41 2.456 5.5a5.3 5.3 0 0 1-.045.69c-.03.225-.065.447-.104.662a2.3 2.3 0 0 0-.044.19.89.89 0 0 0-.015.162h-12.8zM117.158 15.716h3.661V17.1h.06c.456-.56 1.057-.994 1.802-1.302a7.37 7.37 0 0 1 2.336-.542h.595c.079 0 .16.01.238.027a6.901 6.901 0 0 1 2.307.57c.745.325 1.385.75 1.92 1.273l.224.204c.069.063.133.14.193.23.635.814 1.012 1.682 1.131 2.603.12.922.179 1.862.179 2.82v7.753h-3.96v-7.78c0-.254-.01-.506-.03-.76a7.273 7.273 0 0 0-.208-1.152c-.099-.37-.248-.708-.446-1.017a2.75 2.75 0 0 0-1.057-.867 3.815 3.815 0 0 0-1.384-.38h-.372c-.07 0-.144.01-.223.028a3.892 3.892 0 0 0-1.34.42c-.436.226-.774.52-1.012.881-.198.29-.347.628-.446 1.017-.1.389-.16.781-.179 1.179-.02.235-.03.47-.03.705v7.726h-3.959V15.716zM147.968 23.199c0-1.247-.443-2.3-1.325-3.16-.884-.857-2.03-1.277-3.438-1.26-1.45-.017-2.635.416-3.558 1.302-.922.886-1.384 1.989-1.384 3.307 0 1.23.481 2.264 1.444 3.104.962.84 2.108 1.253 3.438 1.234 1.43.019 2.59-.406 3.483-1.274.893-.867 1.34-1.943 1.34-3.226v-.027zm3.75 7.536h-3.632v-2.033h-.059c-.496.65-1.152 1.184-1.965 1.6a8.639 8.639 0 0 1-2.53.84l-.55.055c-.19.017-.372.026-.551.026-1.27 0-2.422-.222-3.453-.664a7.534 7.534 0 0 1-2.62-1.83 7.799 7.799 0 0 1-1.518-2.494 8.325 8.325 0 0 1-.537-2.982c0-1.049.165-2.015.492-2.901.328-.885.868-1.717 1.622-2.494.834-.886 1.762-1.541 2.784-1.966 1.022-.424 2.137-.637 3.348-.637 1.132 0 2.174.222 3.126.664a6.431 6.431 0 0 1 2.411 1.939v-2.142h3.632v15.02z" mask="url(#b)"/>
        <path fill="#EB407A" d="M19.846 25.025v12.206a4.625 4.625 0 0 0 1.47-.528l10.081-5.807a4.788 4.788 0 0 0 2.391-4.14V15.175c0-.47-.077-.926-.212-1.363l-10.959 6.334c-2.252 1.596-2.739 3.107-2.77 4.88" mask="url(#b)"/>
        <path fill="#FF80AB" d="M37.574 11.5l-3.998 2.312c.135.436.212.893.212 1.361v11.584a4.79 4.79 0 0 1-2.39 4.14l-10.082 5.806a4.63 4.63 0 0 1-1.47.529v4.61a5.752 5.752 0 0 0 2.027-.695l13.092-7.542a5.924 5.924 0 0 0 2.956-5.119V13.444a5.75 5.75 0 0 0-.347-1.944" mask="url(#b)"/>
        <path fill="#EB407A" d="M18.927 21.189c.597-.975 1.485-1.816 2.762-2.621l11.029-6.376a4.666 4.666 0 0 0-1.32-1.158L21.316 5.228a4.775 4.775 0 0 0-4.758.002l-10.04 5.803a4.662 4.662 0 0 0-1.338 1.184l10.98 6.346c1.283.81 2.171 1.651 2.767 2.626" mask="url(#b)"/>
        <path fill="#FF80AB" d="M6.518 11.033l10.04-5.803a4.775 4.775 0 0 1 4.758-.003l10.082 5.808c.52.299.957.7 1.32 1.157l3.992-2.307a5.772 5.772 0 0 0-1.745-1.56L21.872.783a5.906 5.906 0 0 0-5.883.004L2.949 8.323A5.856 5.856 0 0 0 1.19 9.91l3.99 2.306a4.674 4.674 0 0 1 1.338-1.184M16.558 36.7l-10.04-5.803a4.787 4.787 0 0 1-2.385-4.136V15.17c0-.456.074-.9.2-1.326l-4-2.312A5.78 5.78 0 0 0 0 13.438v15.055a5.92 5.92 0 0 0 2.95 5.114l13.038 7.537a5.751 5.751 0 0 0 2.02.696v-4.613a4.615 4.615 0 0 1-1.45-.527" mask="url(#b)"/>
        <path fill="#EB407A" d="M15.22 20.133l-10.887-6.29c-.126.426-.2.87-.2 1.326V26.76c0 1.702.914 3.287 2.385 4.136l10.04 5.804c.456.262.947.43 1.45.525V25.022c-.032-1.77-.518-3.281-2.789-4.889M157.256 10.548h11.431v4.537h-6.275v3.143h6.084v4.536h-6.084v3.472h6.275v4.537h-11.43zM171.469 15.604h4.228v1.613c.519-.738 1.474-2.132 4.175-2.132 5.101 0 5.62 4.154 5.62 6.204v9.484h-4.529V22.49c0-1.667-.355-3.143-2.373-3.143-2.237 0-2.592 1.613-2.592 3.17v8.255h-4.529V15.604zM192.53 23.147c0 2.405 1.746 3.882 3.628 3.882 1.118 0 1.992-.383 2.646-1.04.628-.655 1.01-1.557 1.065-2.623 0-1.12-.328-2.132-.955-2.842-.6-.738-1.528-1.176-2.73-1.176-1.936 0-3.654 1.558-3.654 3.772v.027zm11.867 5.795c0 2.268-.164 3.717-.9 5.001-1.173 1.913-3.929 3.58-7.667 3.58-5.265 0-7.257-3.17-7.557-5.33h5.239c.327.74.927 1.121 1.445 1.313a3.708 3.708 0 0 0 1.201.191c1.719 0 3.683-1.066 3.683-3.69v-.902c-.519.875-1.828 2.16-4.201 2.16-4.12 0-7.64-3.116-7.64-7.982 0-5.192 3.71-8.17 7.64-8.17 1.69 0 3.355.6 4.229 1.912v-1.42h4.528v13.337zM207.614 30.773h4.53V15.604h-4.53v15.169zm0-16.782h4.53v-3.443h-4.53v3.443zM215.416 15.604h4.229v1.613c.518-.738 1.473-2.132 4.174-2.132 5.101 0 5.62 4.154 5.62 6.204v9.484h-4.53V22.49c0-1.667-.353-3.143-2.372-3.143-2.237 0-2.592 1.613-2.592 3.17v8.255h-4.529V15.604zM243.188 21.316c-.11-.71-1.037-2.405-3.383-2.405s-3.274 1.695-3.383 2.405h6.766zm-6.82 3.444c.19 1.612 1.718 2.678 3.491 2.678 1.446 0 2.21-.628 2.756-1.42h4.638c-.736 1.694-1.8 3.006-3.083 3.88a7.35 7.35 0 0 1-4.31 1.367c-4.338 0-8.022-3.526-8.022-8.036 0-4.236 3.33-8.144 7.94-8.144 2.318 0 4.31.902 5.73 2.405 1.909 2.05 2.481 4.482 2.127 7.27h-11.268z" mask="url(#b)"/>
    </g>
</svg>
