<?xml version="1.0" encoding="utf-8"?>
<!-- Generator: Adobe Illustrator 21.1.0, SVG Export Plug-In . SVG Version: 6.00 Build 0)  -->
<svg version="1.1" id="Layer_1" xmlns="http://www.w3.org/2000/svg" xmlns:xlink="http://www.w3.org/1999/xlink" x="0px" y="0px"
	 viewBox="0 0 257.6 72.5" style="enable-background:new 0 0 257.6 72.5;" xml:space="preserve">
<g>
	<g>
		<path style="fill:#F4BF30;" d="M7,45.2c0,2.9,1.5,5.6,4,7L28,62c0.9,0.5,1.9,0.8,2.9,1V42.3c0-3.5-1.9-6.8-4.9-8.6L7.5,23
			C7.2,23.8,7,24.7,7,25.6V45.2z"/>
		<path style="fill:#E99D24;" d="M7,45.2c0,2.9,1.5,5.6,4,7L28,62c0.9,0.5,1.9,0.8,2.9,1V42.3c0-3.5-1.9-6.8-4.9-8.6L7.5,23
			C7.2,23.8,7,24.7,7,25.6V45.2z"/>
		<path style="fill:#F4BF30;" d="M28,62l-17-9.8c-2.5-1.4-4-4.1-4-7V25.6c0-0.9,0.2-1.8,0.5-2.6l-0.9-0.5l-5.9-3.4C0.2,20.3,0,21.5,0,22.7
			v25.5c0,3.6,1.9,6.9,5,8.6l22.1,12.7c1.2,0.7,2.4,1.1,3.8,1.2V64v-1C29.9,62.9,28.9,62.6,28,62z"/>
		<path style="fill:#F5E11A;" d="M53.2,52.2c2.5-1.4,4-4.1,4-7V25.7c0-1-0.2-2-0.6-2.9l-18.5,11c-3,1.8-4.9,5.1-4.9,8.6V63c1-0.1,2-0.4,2.9-1
			L53.2,52.2z"/>
		<path style="fill:#FDE860;" d="M63.4,18.7l-5.8,3.5l-0.9,0.5c0.4,0.9,0.6,1.9,0.6,2.9v19.6c0,2.9-1.6,5.6-4,7L36.1,62
			c-0.9,0.5-1.9,0.8-2.9,1v1v6.8c1.4-0.2,2.7-0.6,3.8-1.2l22.2-12.7c3.1-1.8,5-5.1,5-8.7V22.7C64.2,21.4,63.9,20,63.4,18.7z"/>
		<path style="fill:#00A275;" d="M32.1,37.1c1-2.2,2.8-4.1,4.9-5.4l18.6-11c-0.6-0.8-1.4-1.5-2.3-2.1L36.1,8.8c-2.5-1.4-5.6-1.4-8.1,0l-17,9.8
			C10,19.2,9.2,20,8.5,21l18.7,10.8C29.3,33,31,34.9,32.1,37.1z"/>
		<path style="fill:#00ADEE;" d="M59.2,14.1L37,1.3c-3.1-1.8-6.9-1.8-10,0L5,14.1c-1.3,0.7-2.4,1.8-3.2,3l5.9,3.4L8.5,21
			c0.7-1,1.5-1.8,2.5-2.3l17-9.8c2.5-1.4,5.6-1.4,8.1,0l17.1,9.8c0.9,0.5,1.7,1.2,2.3,2.1l0.9-0.5l5.8-3.5
			C61.4,15.6,60.4,14.7,59.2,14.1z"/>
		<path style="fill:#00ADEE;" d="M5,14.1L27.1,1.3L5,14.1c-1.3,0.7-2.4,1.8-3.2,3C2.6,15.8,3.7,14.8,5,14.1z"/>
	</g>
	<g>
		<path style="fill:#000000;" d="M88,18.6h6.7v11.1h0.1c0.7-1,1.7-1.7,3-2.3c1.2-0.5,2.5-0.9,3.8-1.1c0.3,0,0.7-0.1,1-0.1s0.6,0,0.9,0
			c4.1,0,7.5,1.4,10.1,4.1c2.6,2.7,3.9,5.9,3.9,9.4c0,0.5,0,1.1-0.1,1.6c-0.1,0.6-0.2,1.1-0.4,1.7c-0.3,1.1-0.7,2.2-1.2,3.2
			s-1.2,2-1.9,2.8c-1.2,1.4-2.8,2.4-4.6,3.1c-1.8,0.7-3.7,1.1-5.7,1.1c-1.9,0-3.7-0.3-5.3-1c-1.6-0.7-3-1.7-4.1-3.2h-0.1v3.4H88
			V18.6z M96.8,34.3c-1.7,1.4-2.5,3.1-2.5,5.2c0,2.2,0.8,4.1,2.3,5.6s3.6,2.3,6.1,2.3c2.4,0,4.3-0.7,5.8-2.2
			c1.5-1.4,2.2-3.2,2.2-5.4c0-2.1-0.7-3.9-2.2-5.4s-3.4-2.2-5.8-2.2C100.5,32.2,98.5,32.9,96.8,34.3z"/>
		<path style="fill:#000000;" d="M149.6,52.5h-6.2V49h-0.1c-0.8,1.1-2,2-3.3,2.7c-1.4,0.7-2.8,1.2-4.3,1.4c-0.3,0-0.6,0.1-0.9,0.1
			c-0.3,0-0.6,0-0.9,0c-2.2,0-4.1-0.4-5.9-1.1c-1.7-0.7-3.2-1.8-4.4-3.1c-1.1-1.2-2-2.6-2.6-4.2c-0.6-1.6-0.9-3.3-0.9-5
			c0-1.8,0.3-3.4,0.8-4.9c0.6-1.5,1.5-2.9,2.8-4.2c1.4-1.5,3-2.6,4.7-3.3c1.7-0.7,3.6-1.1,5.7-1.1c1.9,0,3.7,0.4,5.3,1.1
			s3,1.8,4.1,3.3v-3.6h6.2v25.4H149.6z M143.2,39.7c0-2.1-0.7-3.9-2.2-5.3c-1.5-1.5-3.4-2.2-5.8-2.1c-2.5,0-4.5,0.7-6,2.2
			c-1.6,1.5-2.3,3.4-2.3,5.6c0,2.1,0.8,3.8,2.4,5.3c1.6,1.4,3.6,2.1,5.8,2.1c2.4,0,4.4-0.7,5.9-2.2
			C142.5,43.8,143.2,41.9,143.2,39.7L143.2,39.7z"/>
		<path style="fill:#000000;" d="M154.6,18.6h6.7v33.9h-6.7V18.6z"/>
		<path style="fill:#000000;" d="M172.6,42.5c0.5,1.5,1.4,2.7,2.8,3.6c1.4,0.9,2.9,1.3,4.6,1.3c1.3,0,2.5-0.2,3.6-0.6s2-0.9,2.6-1.6h7.4
			c-0.8,2.3-2.5,4.2-5.1,5.8s-5.3,2.4-8.3,2.4c-4.1,0-7.5-1.3-10.4-3.9c-2.9-2.6-4.3-5.7-4.3-9.4c0-3.8,1.4-7,4.3-9.7
			c2.9-2.7,6.4-4,10.5-4c4,0,7.4,1.3,10.2,4s4.2,5.8,4.2,9.3c0,0.4,0,0.8-0.1,1.2s-0.1,0.8-0.2,1.1c0,0.1-0.1,0.2-0.1,0.3
			s0,0.2,0,0.3L172.6,42.5L172.6,42.5z M187.9,37.1c-0.5-1.5-1.5-2.7-2.9-3.5c-1.4-0.9-3-1.3-4.7-1.3c-0.1,0-0.1,0-0.2,0
			c-0.1,0-0.1,0-0.2,0c-1.6,0.1-3.1,0.6-4.5,1.4c-1.4,0.9-2.4,2-2.8,3.4C172.6,37.1,187.9,37.1,187.9,37.1z"/>
		<path style="fill:#000000;" d="M199,27.1h6.2v2.3h0.1c0.8-0.9,1.8-1.7,3.1-2.2s2.6-0.8,4-0.9c0.1,0,0.2,0,0.3,0s0.2,0,0.3,0s0.3,0,0.4,0
			c0.1,0,0.3,0,0.4,0c1.3,0.1,2.6,0.4,3.9,1s2.3,1.3,3.3,2.2c0.1,0.1,0.3,0.2,0.4,0.3c0.1,0.1,0.2,0.2,0.3,0.4
			c1.1,1.4,1.7,2.8,1.9,4.4s0.3,3.1,0.3,4.8v13.1h-6.7v-12c0-0.4,0-0.8,0-1.2s0-0.9-0.1-1.3c-0.1-0.7-0.2-1.3-0.4-1.9
			c-0.2-0.6-0.4-1.2-0.8-1.7c-0.4-0.6-1-1.1-1.8-1.5s-1.5-0.6-2.3-0.6h-0.1c0,0-0.1,0-0.2,0c-0.1,0-0.2,0-0.3,0s-0.2,0-0.4,0
			c-0.8,0.1-1.5,0.3-2.3,0.7c-0.7,0.4-1.3,0.9-1.7,1.5c-0.3,0.5-0.6,1.1-0.8,1.7c-0.2,0.7-0.3,1.3-0.3,2c0,0.4,0,0.8,0,1.2
			s0,0.8,0,1.1c0,0.1,0,0.2,0,0.3s0,0.1,0,0.2v11.5H199V27.1z"/>
		<path style="fill:#000000;" d="M257.6,52.5h-6.2V49h-0.1c-0.8,1.1-2,2-3.3,2.7c-1.4,0.7-2.8,1.2-4.3,1.4c-0.3,0-0.6,0.1-0.9,0.1
			c-0.3,0-0.6,0-0.9,0c-2.2,0-4.1-0.4-5.9-1.1c-1.7-0.7-3.2-1.8-4.4-3.1c-1.1-1.2-2-2.6-2.6-4.2c-0.6-1.6-0.9-3.3-0.9-5
			c0-1.8,0.3-3.4,0.8-4.9c0.6-1.5,1.5-2.9,2.8-4.2c1.4-1.5,3-2.6,4.7-3.3c1.7-0.7,3.6-1.1,5.7-1.1c1.9,0,3.7,0.4,5.3,1.1
			s3,1.8,4.1,3.3v-3.6h6.2v25.4H257.6z M251.2,39.7c0-2.1-0.7-3.9-2.2-5.3c-1.5-1.5-3.4-2.2-5.8-2.1c-2.5,0-4.5,0.7-6,2.2
			c-1.6,1.5-2.3,3.4-2.3,5.6c0,2.1,0.8,3.8,2.4,5.3c1.6,1.4,3.6,2.1,5.8,2.1c2.4,0,4.4-0.7,5.9-2.2
			C250.5,43.8,251.2,41.9,251.2,39.7L251.2,39.7z"/>
	</g>
</g>
</svg>
