<svg xmlns="http://www.w3.org/2000/svg" width="73" height="20" viewBox="0 0 73 20">
    <g fill="none" fill-rule="evenodd">
        <path fill="#FFC600" d="M9.486 11.917v5.812c.244-.045.482-.125.703-.251l4.819-2.766a2.278 2.278 0 0 0 1.142-1.97V7.225c0-.224-.037-.441-.1-.65L10.81 9.594c-1.077.76-1.31 1.48-1.325 2.324"/>
        <path fill="#F6EB61" d="M17.96 5.476l-1.91 1.1c.064.209.1.426.1.65v5.515c0 .811-.438 1.567-1.142 1.971l-4.82 2.766c-.22.126-.458.206-.701.251v2.196c.346-.052.671-.161.968-.331l6.258-3.591a2.819 2.819 0 0 0 1.413-2.438V6.402c0-.315-.058-.625-.166-.926"/>
        <path fill="#439879" d="M9.047 10.09c.285-.464.71-.865 1.32-1.248l5.272-3.036a2.228 2.228 0 0 0-.631-.552l-4.82-2.765a2.29 2.29 0 0 0-2.273.001l-4.8 2.764c-.252.145-.464.34-.639.564l5.248 3.021c.613.386 1.038.787 1.323 1.25"/>
        <path fill="#28CDFB" d="M3.116 5.254L7.915 2.49a2.29 2.29 0 0 1 2.274-.002l4.819 2.766c.248.142.458.333.63.55l1.91-1.098a2.756 2.756 0 0 0-.835-.743L10.455.373a2.832 2.832 0 0 0-2.813.002L1.41 3.963a2.796 2.796 0 0 0-.841.757l1.907 1.098c.175-.223.387-.419.64-.564"/>
        <path fill="#FDD757" d="M7.915 17.476l-4.8-2.763a2.278 2.278 0 0 1-1.14-1.97v-5.52c0-.217.036-.428.096-.631L.16 5.49c-.104.296-.159.6-.159.908v7.169c0 1.002.54 1.935 1.41 2.435l6.232 3.59c.296.169.62.278.966.33v-2.196a2.211 2.211 0 0 1-.693-.25"/>
        <path fill="#EC8B00" d="M7.275 9.587L2.07 6.592a2.21 2.21 0 0 0-.095.631v5.52c0 .81.437 1.566 1.14 1.97l4.799 2.763c.218.126.452.205.693.25v-5.811c-.015-.843-.248-1.562-1.333-2.328"/>
        <g fill="#2A506F">
            <path d="M27.29 9.66c-.472.383-.708.871-.708 1.465 0 .628.217 1.155.652 1.582.434.426 1.006.639 1.715.639.67 0 1.214-.203 1.63-.61.415-.405.623-.91.623-1.514A2.08 2.08 0 0 0 30.58 9.7c-.416-.42-.96-.628-1.63-.628a2.614 2.614 0 0 0-1.658.587zm-2.48-4.422h1.885v3.137h.029c.208-.275.484-.488.829-.639.345-.15.701-.251 1.07-.303a5.135 5.135 0 0 1 .524-.026c1.153 0 2.098.383 2.835 1.149.737.766 1.105 1.653 1.105 2.66 0 .146-.01.299-.028.458-.02.16-.052.316-.1.471-.075.31-.189.611-.34.904a3.487 3.487 0 0 1-1.828 1.659 4.27 4.27 0 0 1-1.587.303 3.962 3.962 0 0 1-1.495-.278 2.564 2.564 0 0 1-1.141-.91l-.029-.013v.969H24.81v-9.54zM40.33 11.19c0-.594-.211-1.095-.631-1.504-.42-.41-.967-.61-1.637-.6-.69-.01-1.255.197-1.694.619-.44.422-.659.947-.659 1.575 0 .585.229 1.078.687 1.478.459.4 1.004.597 1.637.588.68.009 1.234-.194 1.659-.607.425-.413.637-.925.637-1.536v-.013zm1.785 3.589h-1.729v-.969h-.028c-.237.31-.549.564-.936.762a4.108 4.108 0 0 1-1.204.4l-.262.026a4.13 4.13 0 0 1-1.906-.304 3.59 3.59 0 0 1-1.248-.87 3.718 3.718 0 0 1-.723-1.188 3.965 3.965 0 0 1-.255-1.42c0-.5.078-.96.234-1.382.156-.421.413-.817.772-1.188a3.838 3.838 0 0 1 1.326-.936 4.117 4.117 0 0 1 1.594-.303c.538 0 1.035.106 1.488.316.454.211.836.519 1.148.923v-1.02h1.73v7.153zM43.518 14.779h1.885v-9.54h-1.885zM52.872 10.441a1.877 1.877 0 0 0-.822-.994 2.49 2.49 0 0 0-1.318-.361h-.114c-.453.025-.878.16-1.275.402-.397.243-.662.56-.794.953h4.323zm-4.294 1.523c.141.422.403.758.786 1.007.383.25.81.375 1.283.375.359 0 .696-.056 1.013-.168.316-.112.565-.263.744-.452l2.084-.013c-.237.645-.716 1.19-1.439 1.633a4.38 4.38 0 0 1-2.331.665c-1.144 0-2.12-.363-2.927-1.09-.808-.728-1.212-1.612-1.212-2.654 0-1.058.402-1.966 1.205-2.724.803-.757 1.79-1.136 2.962-1.136 1.124 0 2.076.376 2.856 1.127.78.75 1.169 1.624 1.169 2.62 0 .111-.007.22-.021.328-.015.107-.031.212-.05.315-.01.034-.017.065-.021.09a.424.424 0 0 0-.007.077h-6.094zM55.99 7.627h1.743v.658h.029c.216-.267.503-.473.857-.62a3.509 3.509 0 0 1 1.113-.258h.283a.52.52 0 0 1 .113.013c.378.026.744.116 1.099.271.354.155.659.357.914.607l.106.097c.033.03.064.066.092.11.302.387.482.8.539 1.239.057.439.085.886.085 1.342v3.693h-1.885v-3.705c0-.121-.005-.241-.014-.362a3.464 3.464 0 0 0-.1-.549 1.7 1.7 0 0 0-.212-.484 1.309 1.309 0 0 0-.503-.413 1.816 1.816 0 0 0-.66-.18h-.176a.492.492 0 0 0-.107.012c-.217.026-.43.093-.638.2a1.25 1.25 0 0 0-.482.42c-.094.138-.165.3-.212.484a2.804 2.804 0 0 0-.085.562c-.01.112-.014.224-.014.335V14.78H55.99V7.627zM70.659 11.19c0-.594-.211-1.095-.631-1.504-.42-.41-.967-.61-1.637-.6-.69-.01-1.254.197-1.694.619-.439.422-.66.947-.66 1.575 0 .585.23 1.078.689 1.478.458.4 1.003.597 1.637.588.68.009 1.233-.194 1.658-.607.425-.413.638-.925.638-1.536v-.013zm1.785 3.589h-1.729v-.969h-.028a2.7 2.7 0 0 1-.936.762 4.113 4.113 0 0 1-1.204.4l-.262.026a4.13 4.13 0 0 1-1.906-.304 3.587 3.587 0 0 1-1.248-.87 3.714 3.714 0 0 1-.723-1.188 3.965 3.965 0 0 1-.255-1.42c0-.5.078-.96.234-1.382a3.41 3.41 0 0 1 .772-1.188 3.84 3.84 0 0 1 1.326-.936 4.117 4.117 0 0 1 1.594-.303c.539 0 1.035.106 1.488.316.454.211.836.519 1.148.923v-1.02h1.73v7.153z"/>
        </g>
    </g>
</svg>
