<svg xmlns="http://www.w3.org/2000/svg" width="30" height="30" viewBox="0 0 30 30">
    <g fill="none" fill-rule="evenodd">
        <path fill="#527699" fill-rule="nonzero" d="M0 0h30v30l-14.3-6L0 30z"/>
        <path fill="#FFF" d="M24 12.5c0 3.751-2.435 6.939-5.811 8.068-.43.078-.587-.189-.587-.41 0-.276.012-1.195.012-2.334 0-.798-.265-1.306-.576-1.573 1.893-.21 3.885-.929 3.885-4.193 0-.93-.331-1.683-.874-2.28.088-.222.377-1.086-.09-2.259-.708-.221-2.334.876-2.334.876a7.995 7.995 0 0 0-2.125-.29c-.72 0-1.45.101-2.125.29 0 0-1.626-1.097-2.335-.876-.466 1.173-.177 2.037-.089 2.258a3.292 3.292 0 0 0-.874 2.281c0 3.253 1.98 3.984 3.873 4.193-.243.223-.464.598-.542 1.14-.486.222-1.726.599-2.468-.708-.465-.807-1.306-.874-1.306-.874-.83-.011-.056.52-.056.52.554.255.941 1.24.941 1.24.499 1.516 2.867 1.007 2.867 1.007 0 .708.012 1.373.012 1.582 0 .221-.156.488-.587.41A8.501 8.501 0 0 1 15.5 4c4.692 0 8.5 3.807 8.5 8.5"/>
    </g>
</svg>
